<svg width="24" height="25" viewBox="0 0 24 25" fill="none" xmlns="http://www.w3.org/2000/svg">
<path d="M15.1797 15.5C15.1797 14.9477 14.732 14.5 14.1797 14.5C13.6274 14.5 13.1797 14.9477 13.1797 15.5C13.1797 16.0523 13.6274 16.5 14.1797 16.5C14.732 16.5 15.1797 16.0523 15.1797 15.5Z" fill="#30303D"/>
<path d="M18 13.5C18 12.9477 17.5523 12.5 17 12.5C16.4477 12.5 16 12.9477 16 13.5C16 14.0523 16.4477 14.5 17 14.5C17.5523 14.5 18 14.0523 18 13.5Z" fill="#30303D"/>
<path d="M14 8.5C14 8.083 14 7.875 13.966 7.691C13.9067 7.37728 13.7732 7.08231 13.5766 6.83074C13.3801 6.57918 13.1261 6.37833 12.836 6.245C12.666 6.167 12.464 6.116 12.06 6.015L12 6C11.539 5.885 11.308 5.827 11.117 5.733C10.8463 5.5998 10.6093 5.40711 10.4237 5.16934C10.238 4.93157 10.1086 4.65488 10.045 4.36C10 4.152 10 3.914 10 3.438V2.5" stroke="#30303D" stroke-width="2" stroke-linecap="round"/>
<path d="M3 14.5C3 11.941 3 10.662 3.62 9.78C3.78 9.554 3.966 9.35 4.174 9.176C4.982 8.5 6.154 8.5 8.5 8.5H15.5C17.846 8.5 19.018 8.5 19.826 9.176C20.034 9.35 20.221 9.554 20.38 9.78C21 10.662 21 11.941 21 14.5C21 17.059 21 18.338 20.38 19.22C20.2224 19.4446 20.0362 19.6477 19.826 19.824C19.018 20.5 17.846 20.5 15.5 20.5H8.5C6.154 20.5 4.982 20.5 4.174 19.824C3.96382 19.6477 3.77757 19.4446 3.62 19.22C3 18.338 3 17.059 3 14.5Z" stroke="#30303D" stroke-width="2"/>
<path d="M8.42285 12.5L8.42285 16.5" stroke="#30303D" stroke-width="2" stroke-linecap="round"/>
<path d="M6.42285 14.5L10.4229 14.5" stroke="#30303D" stroke-width="2" stroke-linecap="round"/>
</svg>
