<?xml version="1.0" encoding="UTF-8"?>
<svg version="1.1" xmlns="http://www.w3.org/2000/svg" width="32" height="32">
<path d="M0 0 C4.30672387 1.18970273 7.12092205 4.42646465 10.12109375 7.5859375 C11.35859375 8.7925 11.35859375 8.7925 12.62109375 10.0234375 C14.28437245 12.86487194 14.86963588 15.15646502 14.70703125 18.46484375 C13.51732852 22.77156762 10.2805666 25.5857658 7.12109375 28.5859375 C5.91453125 29.8234375 5.91453125 29.8234375 4.68359375 31.0859375 C1.84215931 32.7492162 -0.44943377 33.33447963 -3.7578125 33.171875 C-8.06453637 31.98217227 -10.87873455 28.74541035 -13.87890625 25.5859375 C-14.70390625 24.7815625 -15.52890625 23.9771875 -16.37890625 23.1484375 C-18.04218495 20.30700306 -18.62744838 18.01540998 -18.46484375 14.70703125 C-17.27514102 10.40030738 -14.0383791 7.5861092 -10.87890625 4.5859375 C-10.07453125 3.7609375 -9.27015625 2.9359375 -8.44140625 2.0859375 C-5.59997181 0.4226588 -3.30837873 -0.16260463 0 0 Z " fill="#298FFE" transform="translate(17.87890625,-0.5859375)"/>
<path d="M0 0 C0.1875 2.375 0.1875 2.375 0 5 C-0.99 5.66 -1.98 6.32 -3 7 C-3 7.99 -3 8.98 -3 10 C-2.34 10.33 -1.68 10.66 -1 11 C-1 9.68 -1 8.36 -1 7 C0.65 7 2.3 7 4 7 C4.02689216 8.47906892 4.04634621 9.95827483 4.0625 11.4375 C4.07410156 12.26121094 4.08570313 13.08492187 4.09765625 13.93359375 C4 16 4 16 3 17 C-0.85303968 17.43784542 -2.54122122 17.30585252 -5.8125 15.125 C-8.38107884 12.62980912 -8.90422618 11.71830363 -9.375 8.1875 C-9 5 -9 5 -6.75 2.125 C-4 0 -4 0 0 0 Z " fill="#E6EEFE" transform="translate(18,7)"/>
<path d="M0 0 C0.3125 3.25 0.3125 3.25 0 7 C-2.5 9.4375 -2.5 9.4375 -5 11 C-5.66 8.36 -6.32 5.72 -7 3 C-3.375 0 -3.375 0 0 0 Z " fill="#4ECCFE" transform="translate(15,0)"/>
<path d="M0 0 C0.66 0 1.32 0 2 0 C2 1.98 2 3.96 2 6 C1.01 6 0.02 6 -1 6 C-1 7.32 -1 8.64 -1 10 C-1.99 9.67 -2.98 9.34 -4 9 C-3.6875 7.0625 -3.6875 7.0625 -3 5 C-2.01 4.67 -1.02 4.34 0 4 C0 2.68 0 1.36 0 0 Z " fill="#4FB5F9" transform="translate(18,8)"/>
<path d="M0 0 C0.66 0 1.32 0 2 0 C2.33 2.31 2.66 4.62 3 7 C1.02 6.01 -0.96 5.02 -3 4 C-1.625 2 -1.625 2 0 0 Z " fill="#2EAEFF" transform="translate(7,4)"/>
<path d="M0 0 C3.26954202 0.56371414 4.82575883 1.49962266 7 4 C5.68 4.33 4.36 4.66 3 5 C2.01 3.35 1.02 1.7 0 0 Z M-1 1 C-0.67 1.66 -0.34 2.32 0 3 C-0.66 2.67 -1.32 2.34 -2 2 C-1.67 1.67 -1.34 1.34 -1 1 Z " fill="#1B96FE" transform="translate(3,8)"/>
<path d="M0 0 C0.66 0 1.32 0 2 0 C2.33 2.64 2.66 5.28 3 8 C2.01 8.495 2.01 8.495 1 9 C0.63877119 7.68942607 0.28619689 6.37646376 -0.0625 5.0625 C-0.35833984 3.96615234 -0.35833984 3.96615234 -0.66015625 2.84765625 C-0.77230469 2.23792969 -0.88445313 1.62820312 -1 1 C-0.67 0.67 -0.34 0.34 0 0 Z " fill="#45C0FE" transform="translate(9,2)"/>
</svg>
