<svg width="30" height="33" viewBox="0 0 30 33" fill="none" xmlns="http://www.w3.org/2000/svg">
<path d="M15.4299 32.0846C12.339 32.0846 9.70604 31.4389 7.53095 30.1475C5.35587 28.8273 3.69594 27.005 2.55116 24.6804C1.40638 22.3271 0.833984 19.5864 0.833984 16.4583C0.833984 14.1337 1.1488 12.0243 1.77843 10.1302C2.43668 8.20741 3.38112 6.55724 4.61176 5.17971C5.87102 3.80218 7.40217 2.75468 9.2052 2.03721C11.0082 1.29105 13.0545 0.917969 15.3441 0.917969C17.6623 0.917969 19.7372 1.29105 21.5688 2.03721C23.4005 2.78338 24.9173 3.90262 26.1193 5.39495C27.35 6.85858 28.1513 8.69528 28.5234 10.9051H22.2986C22.0697 9.95802 21.6547 9.18316 21.0537 8.58049C20.4527 7.94912 19.6943 7.4756 18.7784 7.15991C17.8912 6.84423 16.8752 6.68639 15.7304 6.68639C14.1564 6.68639 12.8256 6.95902 11.738 7.50429C10.6505 8.04957 9.76328 8.79573 9.07641 9.74278C8.41816 10.6611 7.93163 11.723 7.61681 12.9283C7.33062 14.105 7.18752 15.3247 7.18752 16.5874C7.18752 18.3093 7.47372 19.9164 8.04611 21.4088C8.6185 22.8724 9.52001 24.0634 10.7507 24.9817C11.9813 25.8714 13.6126 26.3162 15.6446 26.3162C16.9897 26.3162 18.1774 26.1153 19.2077 25.7135C20.2666 25.2831 21.1109 24.6517 21.7406 23.8194C22.3988 22.9585 22.7709 21.9253 22.8567 20.72H14.5714V15.4251H29.1673V17.104C29.1673 20.2034 28.6522 22.8724 27.6219 25.1109C26.5916 27.3494 25.0604 29.0713 23.0284 30.2766C20.9964 31.482 18.4636 32.0846 15.4299 32.0846Z" fill="#D2BB3F"/>
</svg>
