<svg width="40" height="40" viewBox="0 0 40 40" fill="none" xmlns="http://www.w3.org/2000/svg">
<path d="M28.3337 16.6667V13.3333C28.3337 8.73096 24.6027 5 20.0003 5C15.398 5 11.667 8.73096 11.667 13.3333V16.6667M20.0003 24.1667V27.5M14.667 35H25.3337C28.1339 35 29.5341 35 30.6036 34.455C31.5444 33.9757 32.3093 33.2108 32.7887 32.27C33.3337 31.2004 33.3337 29.8003 33.3337 27V24.6667C33.3337 21.8664 33.3337 20.4663 32.7887 19.3967C32.3093 18.4559 31.5444 17.691 30.6036 17.2116C29.5341 16.6667 28.1339 16.6667 25.3337 16.6667H14.667C11.8667 16.6667 10.4666 16.6667 9.39704 17.2116C8.45623 17.691 7.69133 18.4559 7.21196 19.3967C6.66699 20.4663 6.66699 21.8664 6.66699 24.6667V27C6.66699 29.8003 6.66699 31.2004 7.21196 32.27C7.69133 33.2108 8.45623 33.9757 9.39704 34.455C10.4666 35 11.8667 35 14.667 35Z" stroke="white" stroke-width="3" stroke-linecap="round" stroke-linejoin="round"/>
</svg>
